PathFileType  4	(X/Y/Z) C:\Users\antoi\Documents\MyRepositories\mobilecap\ResultsAnalysis
DataRate	CameraRate	NumFrames	NumMarkers	Units	OrigDataRate	OrigDataStartFrame	OrigNumFrames
100.0	100.0	4	51	mm	100.0	104	138
Frame#	Time	r_knee			r_shank_antsup			r_ankle			r_calc			r_5meta			r_toe			L_knee			L_shank_antsup			L_ankle			L_calc			L_5meta			L_toe			r_sh2			r_sh3			r_sh4			L_sh2			L_sh3			r_thigh1			r_thigh2			r_thigh3			r_thigh4			r_thigh5			L_thigh1			L_thigh2			L_thigh3			L_thigh4			r.ASIS			r.PSIS			L.ASIS			L.PSIS			C7			R_Shoulder			L_Shoulder			R_Sternum			L_Sternum			R_humerus			R_elbow_med			R_elbow_lat			R_forearm			R_wrist_radius			R_wrist_ulna			L_humerus			L_elbow_med			L_elbow_lat			L_forearm			L_wrist_radius			L_wrist_ulna			R_HJC			L_HJC			R_HJC_reg			L_HJC_reg			
		X1	Y1	Z1	X2	Y2	Z2	X3	Y3	Z3	X4	Y4	Z4	X5	Y5	Z5	X6	Y6	Z6	X7	Y7	Z7	X8	Y8	Z8	X9	Y9	Z9	X10	Y10	Z10	X11	Y11	Z11	X12	Y12	Z12	X13	Y13	Z13	X14	Y14	Z14	X15	Y15	Z15	X16	Y16	Z16	X17	Y17	Z17	X18	Y18	Z18	X19	Y19	Z19	X20	Y20	Z20	X21	Y21	Z21	X22	Y22	Z22	X23	Y23	Z23	X24	Y24	Z24	X25	Y25	Z25	X26	Y26	Z26	X27	Y27	Z27	X28	Y28	Z28	X29	Y29	Z29	X30	Y30	Z30	X31	Y31	Z31	X32	Y32	Z32	X33	Y33	Z33	X34	Y34	Z34	X35	Y35	Z35	X36	Y36	Z36	X37	Y37	Z37	X38	Y38	Z38	X39	Y39	Z39	X40	Y40	Z40	X41	Y41	Z41	X42	Y42	Z42	X43	Y43	Z43	X44	Y44	Z44	X45	Y45	Z45	X46	Y46	Z46	X47	Y47	Z47	X48	Y48	Z48	X49	Y49	Z49	X50	Y50	Z50	X51	Y51	Z51	

104	1.03000000	1287.94196	501.55754	-54.31592	1347.71567	457.80581	-70.79598	1414.78004	116.11322	-77.83479	1361.59240	64.45943	-113.45051	1536.91552	93.69539	-55.28498	1567.01172	144.42530	-108.37027	1036.98639	490.54400	-317.67437	1043.54931	390.33097	-316.13149	910.99271	105.36506	-272.64685	837.03329	71.80426	-224.99155	1005.95342	38.95939	-315.56527	1049.72249	57.85937	-261.44233	1366.27624	344.41642	-49.46545	1269.31937	441.62353	-44.49973	1291.70459	331.00519	-44.97195	956.24465	421.42808	-319.95363	927.95282	301.34601	-318.45465	1228.34249	814.87048	-19.45872	1264.94553	706.92683	-27.84514	1217.69741	667.22044	1.23539	1122.13454	776.71055	-1.69081	1163.70548	668.87741	-14.78738	1122.82745	743.97947	-376.27770	1104.25875	611.63357	-343.06235	1012.28964	765.17995	-340.70774	997.50888	628.85450	-315.97556	1207.89129	959.57026	-68.76402	1017.79444	998.95212	-137.81433	1210.73078	934.69090	-318.04200	1009.61159	1003.73721	-238.82296	1017.89634	1405.90445	-231.71103	1108.46893	1379.82730	-45.38477	1117.86889	1369.84479	-403.24911	1157.43468	1378.01790	-201.83636	1163.67227	1378.64338	-242.77186	1106.60593	1245.46335	22.41750	1046.00234	1036.05717	-15.16986	1052.84994	1055.86935	52.05777	1121.48108	936.19909	86.91121	1155.40080	806.78251	109.47132	1126.03801	800.69540	128.08916	1177.42816	1269.88852	-457.85603	1240.53142	1039.53621	-407.55586	1265.76428	1075.33895	-475.88243	1374.34263	1044.51104	-450.77291	1506.75378	957.54820	-430.37579	1494.05943	940.36397	-458.84406	1128.95059	880.79277	-83.11171	1122.85060	869.49295	-289.18317	1142.70038	869.53077	-101.31417	1129.36464	877.32926	-265.93849	
105	1.04000000	1295.21099	498.64787	-54.84966	1356.53985	456.71155	-71.36547	1434.01000	117.03271	-78.14817	1382.68575	63.04633	-113.35109	1556.97628	98.87264	-55.34416	1585.18979	150.49548	-108.68940	1043.19345	489.86747	-317.40303	1048.54176	389.43478	-316.08497	911.86257	106.30891	-272.71632	837.55499	73.09273	-225.04178	1005.98560	38.88539	-315.66767	1050.17640	57.64620	-261.65003	1378.40369	343.92143	-49.88468	1278.57374	438.28707	-45.22022	1304.45439	328.14950	-45.57367	961.58007	421.75833	-319.82752	931.64981	302.05302	-318.36629	1236.50806	811.27787	-17.97442	1272.30643	702.91670	-26.96531	1224.05432	663.50921	1.15986	1129.65518	774.27851	-2.45855	1170.13985	665.93591	-15.85708	1131.51369	742.48718	-376.02832	1111.73852	610.30517	-342.83283	1021.22771	764.84741	-340.28248	1005.14881	628.57746	-315.61107	1218.67385	957.24257	-67.95103	1028.52327	997.06287	-136.66119	1220.89525	932.75622	-317.34895	1020.07364	1002.05770	-237.65171	1028.51718	1403.93575	-230.88772	1119.13505	1378.03250	-44.45396	1128.74430	1367.79897	-402.41584	1168.11273	1376.25193	-200.97465	1174.39997	1376.79614	-241.86496	1116.55579	1243.69460	23.36346	1055.05579	1034.54740	-14.52867	1061.41505	1054.39147	52.73081	1129.11640	934.37477	88.24035	1162.06688	804.75675	111.04953	1132.54824	798.82152	129.44307	1188.70059	1268.16784	-456.96112	1253.78934	1038.70670	-406.57747	1278.75659	1074.48807	-474.91745	1387.92520	1046.26399	-449.42590	1522.04453	962.54260	-428.29940	1510.03266	944.84903	-456.45673	1139.52447	878.63535	-82.33487	1132.99387	867.66878	-288.40964	1153.29778	867.30642	-100.50571	1139.52425	875.44853	-265.12750	
106	1.05000000	1303.40204	496.13667	-55.22443	1365.68771	455.33350	-71.82761	1449.92513	117.28017	-78.67039	1400.06753	61.56782	-113.49079	1573.35772	102.27302	-55.27426	1600.27417	154.42607	-108.84417	1049.62064	489.03531	-317.01322	1053.91202	388.48509	-316.01310	912.80610	107.48077	-272.81848	838.15601	74.68605	-225.11591	1006.05858	38.84037	-315.77566	1050.64443	57.40324	-261.84198	1389.73940	342.98508	-50.26444	1288.06517	435.40978	-45.68377	1316.26935	325.61406	-45.97247	967.37280	422.12097	-319.65909	935.67866	302.85690	-318.23912	1245.15307	808.26501	-16.57887	1280.52627	699.63361	-26.09956	1231.46125	660.39371	1.19295	1137.78256	772.06019	-3.09204	1177.45129	663.22910	-16.65521	1140.29764	741.03986	-375.73913	1119.45021	609.01362	-342.62249	1030.27764	764.56845	-339.77412	1013.09168	628.17625	-315.05826	1229.53939	954.83580	-67.18663	1039.33648	995.25732	-135.43915	1231.00261	930.83651	-316.76623	1030.60014	1000.42447	-236.39477	1039.24204	1402.00603	-229.89597	1129.93395	1376.23485	-43.37743	1139.67432	1365.76660	-401.47772	1178.90453	1374.54250	-199.98978	1185.19246	1375.00299	-240.83547	1126.71119	1241.90928	24.40588	1064.39577	1033.00074	-13.80916	1070.31903	1052.88196	53.49546	1137.02823	932.50170	89.59402	1168.98241	802.70268	112.63691	1139.27389	796.89489	130.80876	1199.93519	1266.33269	-455.91106	1266.66773	1037.71773	-405.41528	1291.39261	1073.37907	-473.75614	1401.05712	1047.60926	-447.96026	1536.68536	966.99355	-426.20475	1525.40043	948.78224	-454.02215	1150.15481	876.45134	-81.59930	1143.06559	865.88765	-287.67513	1163.85886	865.14076	-99.70747	1149.60942	873.56866	-264.36128	
107	1.06000000	1312.54653	494.00293	-55.44947	1375.20893	453.63208	-72.16939	1462.47124	116.61532	-79.40473	1413.63398	59.89106	-113.90985	1586.08643	103.52842	-55.06170	1612.38711	155.89897	-108.76378	1056.35346	488.08817	-316.54230	1059.67246	387.50247	-315.91392	913.81889	108.94670	-272.96259	838.84874	76.62649	-225.24035	1006.19240	38.82291	-315.89236	1051.08434	57.11216	-261.98600	1400.28389	341.50368	-50.61672	1297.79331	432.98032	-45.91916	1327.07963	323.35121	-46.24297	973.64224	422.51746	-319.46145	940.05350	303.76545	-318.09341	1254.49844	805.92917	-15.40367	1289.77224	697.15817	-25.34639	1240.16075	657.95762	1.32476	1146.76939	770.10025	-3.43842	1185.92307	660.86385	-17.09549	1149.18857	739.65589	-375.40680	1127.40299	607.77323	-342.42232	1039.46583	764.29168	-339.12623	1021.33657	627.68438	-314.31768	1240.49404	952.41629	-66.45992	1050.23485	993.57123	-134.16995	1241.06397	928.95253	-316.28174	1041.21842	998.86089	-235.07977	1050.07342	1400.14957	-228.74357	1140.86334	1374.47302	-42.16454	1150.67064	1363.79569	-400.43053	1189.81816	1372.90959	-198.88106	1196.07337	1373.29797	-239.67990	1137.08041	1240.14252	25.53679	1074.02971	1031.45553	-13.01639	1079.58862	1051.38065	54.34236	1145.23064	930.61771	90.95913	1176.14867	800.64440	114.22529	1146.22820	794.96154	132.18326	1211.10623	1264.42312	-454.71550	1279.17457	1036.57519	-404.04561	1303.65308	1072.03916	-472.39618	1413.69907	1048.52141	-446.40322	1550.69400	970.87569	-424.09190	1540.12025	952.13602	-451.56309	1160.84842	874.29827	-80.89245	1153.09213	864.16866	-286.96532	1174.37998	863.07695	-98.91607	1159.65983	871.71254	-263.64404	
